<svg id="Layer_1" data-name="Layer 1" xmlns="http://www.w3.org/2000/svg" viewBox="0 0 373.7 484.53"><polygon points="86 331.2 206.45 261.05 168.91 261.05 82.67 301.77 86 331.2" style="fill:#47403d"/><polygon points="206.45 261.05 206.45 276.37 86 346.52 86 328.07 206.45 261.05" style="fill:#28211f"/><polygon points="6.06 346.52 86 346.52 210.44 129.59 206.51 0 6.06 346.52" style="fill:#28211f"/><polygon points="205.92 137.44 206.51 0 366.21 276.6 286.07 276.6 205.92 137.44" style="fill:#47403d"/><polygon points="206.51 0 206.51 27.95 306.55 173.26 206.51 0"/><polygon points="206.66 0 206.66 27.95 106.63 173.26 206.66 0"/><polygon points="183.09 233.51 205.92 233.51 205.92 193.96 183.09 233.51" style="fill:#47403d"/><polygon points="205.92 193.96 205.92 233.51 228.76 233.51 205.92 193.96" style="fill:#28211f"/><path d="M34.63,428.23v3.28h25.7v-3.28c-5.76-.71-6.56-1.33-9.84-9.57-5.76-14.79-11.78-30.57-17.45-46l-4.25.79L10.35,419.28c-3,7.45-4.43,8.24-10,9v3.28H22.23v-3.28c-7-.62-9.13-1.33-7.27-6.91.89-2.75,2.13-6.11,3.1-8.86H35.34C36.67,416,38.09,420,39,422.65,40.22,426.46,40.22,427.44,34.63,428.23ZM19.57,407.94c2.22-6.47,4.7-12.4,7.27-18.78l6.82,18.78Z"/><path d="M115.27,432.66a146.11,146.11,0,0,1,17.37-3.45v-2.93l-1.95-.26c-3.37-.45-3.9-.89-3.9-5.67v-51a122.57,122.57,0,0,1-17.46,3v2.92c5.5.71,5.94,1.16,5.94,5.85v10.19a20.34,20.34,0,0,0-3.54-.26c-13.83,0-24.55,9.65-24.55,21.79,0,13.21,10.72,19.67,18.25,19.67a8.25,8.25,0,0,0,4.44-1.59c1.59-1.06,3.81-2.39,5.4-3.46Zm-4.87-6.91c-4-.09-10.46-4.34-10.46-15.95,0-12.85,5.94-14.71,8.68-14.71a6.89,6.89,0,0,1,6.65,4.43v24.73A8.14,8.14,0,0,1,110.4,425.75Z"/><path d="M171.27,385.61a6.35,6.35,0,0,0,6.47-6.29,6.22,6.22,0,0,0-6.38-6.29,6.36,6.36,0,0,0-6.47,6.29A6.45,6.45,0,0,0,171.27,385.61Z"/><path d="M183.15,428.5c-5.14-.62-5.5-1.24-5.5-7.27V391a96.49,96.49,0,0,1-16,3.19v2.92c4.17.53,4.61.89,4.61,6.82v17.28c0,6.29-.53,6.65-5.31,7.27v3h22.24Z"/><path d="M230.47,431.6l6.64-3.28-.88-3.19A10.82,10.82,0,0,1,232,426c-1.68,0-4.52-.8-4.52-7.71V396.6h8.16c1.15-.8,1.5-3.54.7-4.43h-8.86c-.08-6.65.09-11.34.18-13.73l-1.15-.71c-3.1,2.12-7.44,5-10.46,7.09v7.35h-3.63l-2.57,3.37.53,1.06H216v24.72c0,8.06,4.08,11.25,10.9,11.25A9.66,9.66,0,0,0,230.47,431.6Z"/><path d="M307.73,395.18v-3H291.52v3c4.43.71,5.58,1.86,4.7,4.7-1.6,5-4.79,13.11-6.74,18l-6.91-18.7c-1-2.75-.35-3.37,3.45-4v-3H263.87v3c4.26.62,5.32,1.69,6.91,5.41s7.27,15.86,11.88,28.62a4.5,4.5,0,0,1,.35,3.36,32.1,32.1,0,0,1-2.21,5c-1.6,2.74-4,4.43-7.45,6.38-1.86,1.15-2.39,1.86-2.39,3.28,0,3.1,3.55,5.67,7,5.67,1.51,0,2.57-.62,3.19-2.57,1.69-5.05,3.37-10.9,9.39-25.26,5.14-12.31,7.62-19,9.84-23.57C302.6,396.69,303.48,395.8,307.73,395.18Z"/><path d="M372.69,427.52l-1-3a6.68,6.68,0,0,1-2.74.71c-1.42,0-2.84-1.06-2.84-5.32V404.57c0-4.51-1.06-8.24-4.87-10.89a15.53,15.53,0,0,0-9.13-2.57A43.56,43.56,0,0,0,338,397.4c-2,1.42-3.1,2.57-3.1,4.16,0,2.48,2.93,4.61,5.23,4.61a3.5,3.5,0,0,0,3.81-3c.71-2.66,1.06-4.43,2.13-5.85a4.35,4.35,0,0,1,3.54-1.77c3.81,0,5.49,2.57,5.49,7.17v3.9c-2,1.77-9,3.9-14.26,5.85-4.7,1.86-6.82,4-6.82,8.68a11.65,11.65,0,0,0,12,11.43c1.68,0,6-2.92,9.39-5.13a8.87,8.87,0,0,0,2.3,3.27,8.12,8.12,0,0,0,5.5,1.86Zm-17.64-3.19a5,5,0,0,1-3.9,1.42c-1.94,0-5.4-1.77-5.4-6.73,0-3,1.6-4.61,4.34-6l5-2.74Z"/><polygon points="8.1 468.16 4.06 461.37 0 461.37 6.29 471.31 6.29 478.53 9.74 478.53 9.74 471.33 16.05 461.37 12.06 461.37 8.1 468.16"/><path d="M25.36,461.08a9.32,9.32,0,0,0-3.7.68,6.61,6.61,0,0,0-2.21,1.54,8,8,0,0,0-1.6,2.35,11,11,0,0,0-.79,4.4,8.87,8.87,0,0,0,2.26,6.43,8.08,8.08,0,0,0,6.09,2.34,8,8,0,0,0,6-2.35,10.5,10.5,0,0,0,0-13A8.05,8.05,0,0,0,25.36,461.08Zm3.44,13.29a4.63,4.63,0,0,1-6.82,0,6.39,6.39,0,0,1-1.35-4.41,6.49,6.49,0,0,1,1.31-4.43A4.42,4.42,0,0,1,25.4,464a4.35,4.35,0,0,1,3.43,1.45,6.46,6.46,0,0,1,1.3,4.4A6.6,6.6,0,0,1,28.8,474.37Z"/><path d="M46.6,470.86a19.44,19.44,0,0,1-.15,2.91,2.35,2.35,0,0,1-.9,1.48,3.44,3.44,0,0,1-2.22.61,3.67,3.67,0,0,1-2.29-.64A2.79,2.79,0,0,1,40,473.53a18.65,18.65,0,0,1-.13-2.87v-9.29H36.39v9.15a20.51,20.51,0,0,0,.34,4.35,4.69,4.69,0,0,0,1,1.91,5.4,5.4,0,0,0,2,1.47,9.49,9.49,0,0,0,3.73.57,8.71,8.71,0,0,0,3.3-.52,5.25,5.25,0,0,0,2-1.4,4.92,4.92,0,0,0,1-2.15,23.88,23.88,0,0,0,.28-4.37v-9H46.6Z"/><path d="M65.09,472.39A8.31,8.31,0,0,0,63.23,471a5.41,5.41,0,0,0,3.4-1.58,4.61,4.61,0,0,0,1.13-3.19,4.89,4.89,0,0,0-.75-2.7,3.91,3.91,0,0,0-2-1.65,12.43,12.43,0,0,0-4-.46H53.73v17.16H57.2v-7.17h.7a5.64,5.64,0,0,1,1.74.2,2.62,2.62,0,0,1,1,.71,24.45,24.45,0,0,1,1.83,2.52l2.5,3.74h4.15l-2.1-3.35A19.83,19.83,0,0,0,65.09,472.39Zm-5.33-3.77H57.2v-4.35h2.7c1.4,0,2.25,0,2.53.06a2.12,2.12,0,0,1,1.3.67,2.06,2.06,0,0,1,.46,1.4,2.18,2.18,0,0,1-.35,1.29,1.87,1.87,0,0,1-1,.72A13.23,13.23,0,0,1,59.76,468.62Z"/><path d="M88.82,469.41a4.07,4.07,0,0,0,2.41-3.72,3.92,3.92,0,0,0-.53-2,4.41,4.41,0,0,0-1.31-1.43,4.46,4.46,0,0,0-1.79-.71,20.27,20.27,0,0,0-3-.17H77.7v17.16h5.84c2.21,0,3.6-.06,4.18-.12A4.9,4.9,0,0,0,90,477.6a4.7,4.7,0,0,0,1.49-1.77,5.16,5.16,0,0,0,.54-2.28,4.12,4.12,0,0,0-.84-2.58A4.47,4.47,0,0,0,88.82,469.41Zm-7.66-5.19h2c1.63,0,2.62,0,3,.06a2,2,0,0,1,1.31.61,1.89,1.89,0,0,1,.44,1.29,1.82,1.82,0,0,1-.51,1.34,2.3,2.3,0,0,1-1.4.61q-.49.06-2.52.06H81.16ZM88,474.85a2.12,2.12,0,0,1-1.25.68,15.55,15.55,0,0,1-2.38.11H81.16v-4.59H84a12,12,0,0,1,3.07.24,2.14,2.14,0,0,1,1.09.79,2.22,2.22,0,0,1,.37,1.31A2.1,2.1,0,0,1,88,474.85Z"/><polygon points="98.46 470.97 107.08 470.97 107.08 468.07 98.46 468.07 98.46 464.27 107.72 464.27 107.72 461.37 95 461.37 95 478.53 108.05 478.53 108.05 475.63 98.46 475.63 98.46 470.97"/><path d="M121.48,469.05a17.39,17.39,0,0,0-3.74-1.23,9.1,9.1,0,0,1-3.19-1.15,1.33,1.33,0,0,1-.51-1,1.25,1.25,0,0,1,.55-1.07,4,4,0,0,1,2.36-.62,3.55,3.55,0,0,1,2.2.58,3,3,0,0,1,.95,1.9l3.46-.15a5,5,0,0,0-1.71-3.78,7.27,7.27,0,0,0-4.86-1.41,8.74,8.74,0,0,0-3.38.59,4.7,4.7,0,0,0-2.14,1.74,4.37,4.37,0,0,0-.74,2.45,4.46,4.46,0,0,0,1.58,3.46,9.42,9.42,0,0,0,3.91,1.69c1.44.36,2.36.61,2.77.75a2.94,2.94,0,0,1,1.25.74,1.61,1.61,0,0,1,.35,1,2.12,2.12,0,0,1-.85,1.66,3.85,3.85,0,0,1-2.52.7,3.74,3.74,0,0,1-2.51-.79,4.09,4.09,0,0,1-1.23-2.49l-3.37.32a6.56,6.56,0,0,0,2.08,4.39,7.45,7.45,0,0,0,5,1.5,9.65,9.65,0,0,0,3.73-.63,4.87,4.87,0,0,0,2.32-1.91,5.11,5.11,0,0,0,.82-2.76,5,5,0,0,0-.69-2.73A4.84,4.84,0,0,0,121.48,469.05Z"/><polygon points="125.74 464.27 130.83 464.27 130.83 478.53 134.3 478.53 134.3 464.27 139.38 464.27 139.38 461.37 125.74 461.37 125.74 464.27"/><polygon points="163.01 473.35 160 461.37 155.88 461.37 152.74 473.15 150.16 461.37 146.61 461.37 150.71 478.53 154.46 478.53 157.87 465.7 161.28 478.53 164.96 478.53 169.13 461.37 165.64 461.37 163.01 473.35"/><polygon points="174.36 470.97 182.97 470.97 182.97 468.07 174.36 468.07 174.36 464.27 183.62 464.27 183.62 461.37 170.89 461.37 170.89 478.53 183.94 478.53 183.94 475.63 174.36 475.63 174.36 470.97"/><path d="M198,469.41a4,4,0,0,0,1.76-1.51,3.94,3.94,0,0,0,.65-2.21,3.82,3.82,0,0,0-.53-2,4.41,4.41,0,0,0-1.31-1.43,4.46,4.46,0,0,0-1.79-.71,20.27,20.27,0,0,0-3-.17h-6.86v17.16h5.84c2.21,0,3.6-.06,4.18-.12a4.86,4.86,0,0,0,2.32-.81,4.61,4.61,0,0,0,1.49-1.77,5.16,5.16,0,0,0,.54-2.28,4.12,4.12,0,0,0-.84-2.58A4.43,4.43,0,0,0,198,469.41Zm-7.65-5.19h2c1.63,0,2.61,0,3,.06a2,2,0,0,1,1.3.61,1.89,1.89,0,0,1,.44,1.29,1.82,1.82,0,0,1-.51,1.34,2.27,2.27,0,0,1-1.4.61c-.33,0-1.16.06-2.51.06h-2.27Zm6.84,10.63a2.18,2.18,0,0,1-1.26.68,15.55,15.55,0,0,1-2.38.11h-3.2v-4.59h2.79a12.14,12.14,0,0,1,3.08.24,2.16,2.16,0,0,1,1.08.79,2.22,2.22,0,0,1,.37,1.31A2.14,2.14,0,0,1,197.2,474.85Z"/><path d="M214.68,469.05a17.2,17.2,0,0,0-3.74-1.23,9.11,9.11,0,0,1-3.18-1.15,1.34,1.34,0,0,1-.52-1,1.27,1.27,0,0,1,.55-1.07,4,4,0,0,1,2.37-.62,3.53,3.53,0,0,1,2.19.58,3,3,0,0,1,1,1.9l3.46-.15a5,5,0,0,0-1.71-3.78,7.28,7.28,0,0,0-4.87-1.41,8.69,8.69,0,0,0-3.37.59,4.6,4.6,0,0,0-2.14,1.74,4.38,4.38,0,0,0-.75,2.45,4.5,4.5,0,0,0,1.58,3.46,9.42,9.42,0,0,0,3.91,1.69c1.44.36,2.37.61,2.77.75a2.88,2.88,0,0,1,1.25.74,1.57,1.57,0,0,1,.36,1,2.12,2.12,0,0,1-.85,1.66,3.88,3.88,0,0,1-2.52.7,3.72,3.72,0,0,1-2.51-.79,4.15,4.15,0,0,1-1.24-2.49l-3.37.32a6.6,6.6,0,0,0,2.08,4.39,7.46,7.46,0,0,0,5,1.5,9.71,9.71,0,0,0,3.74-.63,4.84,4.84,0,0,0,2.31-1.91,5,5,0,0,0,.82-2.76,5.12,5.12,0,0,0-.68-2.73A4.87,4.87,0,0,0,214.68,469.05Z"/><rect x="220.07" y="461.37" width="3.46" height="17.16"/><polygon points="225.61 464.27 230.7 464.27 230.7 478.53 234.16 478.53 234.16 464.27 239.24 464.27 239.24 461.37 225.61 461.37 225.61 464.27"/><polygon points="244.94 470.97 253.55 470.97 253.55 468.07 244.94 468.07 244.94 464.27 254.2 464.27 254.2 461.37 241.48 461.37 241.48 478.53 254.53 478.53 254.53 475.63 244.94 475.63 244.94 470.97"/><polygon points="272.37 473.07 269.26 461.37 264.08 461.37 264.08 478.53 267.29 478.53 267.29 465.02 270.69 478.53 274.02 478.53 277.43 465.02 277.43 478.53 280.65 478.53 280.65 461.37 275.45 461.37 272.37 473.07"/><path d="M291.68,461.08a9.32,9.32,0,0,0-3.7.68,6.61,6.61,0,0,0-2.21,1.54,8,8,0,0,0-1.6,2.35,11,11,0,0,0-.78,4.4,8.87,8.87,0,0,0,2.25,6.43,8.08,8.08,0,0,0,6.09,2.34,8,8,0,0,0,6-2.35,10.5,10.5,0,0,0,0-13A8.05,8.05,0,0,0,291.68,461.08Zm3.44,13.29a4.63,4.63,0,0,1-6.82,0,8,8,0,0,1,0-8.84,4.78,4.78,0,0,1,6.88,0,6.41,6.41,0,0,1,1.3,4.4A6.6,6.6,0,0,1,295.12,474.37Z"/><polygon points="313.16 472.83 306.14 461.37 302.77 461.37 302.77 478.53 305.99 478.53 305.99 467.34 312.9 478.53 316.38 478.53 316.38 461.37 313.16 461.37 313.16 472.83"/><rect x="319.94" y="461.37" width="3.46" height="17.16"/><polygon points="325.47 464.27 330.56 464.27 330.56 478.53 334.03 478.53 334.03 464.27 339.11 464.27 339.11 461.37 325.47 461.37 325.47 464.27"/><path d="M348.5,461.08a9.24,9.24,0,0,0-3.69.68,6.55,6.55,0,0,0-2.22,1.54,8,8,0,0,0-1.6,2.35,11,11,0,0,0-.78,4.4,8.83,8.83,0,0,0,2.26,6.43,9,9,0,0,0,12.12,0,10.5,10.5,0,0,0,0-13A8.05,8.05,0,0,0,348.5,461.08Zm3.44,13.29a4.63,4.63,0,0,1-6.82,0,8,8,0,0,1,0-8.84,4.78,4.78,0,0,1,6.88,0,6.41,6.41,0,0,1,1.3,4.4A6.6,6.6,0,0,1,351.94,474.37Z"/><path d="M372.89,475.18a19,19,0,0,0-2-2.79,8.24,8.24,0,0,0-1.85-1.44,5.41,5.41,0,0,0,3.39-1.58,4.57,4.57,0,0,0,1.14-3.19,4.89,4.89,0,0,0-.75-2.7,4,4,0,0,0-2-1.65,12.43,12.43,0,0,0-4-.46h-7.29v17.16H363v-7.17h.7a5.55,5.55,0,0,1,1.74.2,2.65,2.65,0,0,1,1,.71,26.72,26.72,0,0,1,1.82,2.52l2.51,3.74H375Zm-7.3-6.56H363v-4.35h2.7c1.41,0,2.25,0,2.53.06a2.1,2.1,0,0,1,1.3.67,2.06,2.06,0,0,1,.47,1.4,2.25,2.25,0,0,1-.35,1.29,1.89,1.89,0,0,1-1,.72A13.23,13.23,0,0,1,365.59,468.62Z"/></svg>